<svg width="78" height="13" viewBox="0 0 78 13" fill="none" xmlns="http://www.w3.org/2000/svg">
<path opacity="0.35" d="M54 0.527344H71C72.9178 0.527344 74.4727 2.08222 74.4727 4V9C74.4727 10.9178 72.9178 12.4727 71 12.4727H54C52.0822 12.4727 50.5273 10.9178 50.5273 9V4C50.5273 2.08222 52.0822 0.527344 54 0.527344Z" fill="black" stroke="black" stroke-width="1.05509"/>
<path opacity="0.4" d="M76 5V9.22034C76.8491 8.86291 77.4012 8.0314 77.4012 7.11017C77.4012 6.18894 76.8491 5.35744 76 5Z" fill="black"/>
<path d="M52 4C52 2.89543 52.8954 2 54 2H71C72.1046 2 73 2.89543 73 4V9C73 10.1046 72.1046 11 71 11H54C52.8954 11 52 10.1046 52 9V4Z" fill="black"/>
<path fill-rule="evenodd" clip-rule="evenodd" d="M32.1152 10.0848C33.535 8.85917 35.6144 8.8593 37.0342 10.0848C37.1056 10.1507 37.1475 10.2443 37.1494 10.3426C37.1514 10.4408 37.1136 10.5355 37.0449 10.6043L34.8213 12.8943C34.7562 12.9615 34.6678 12.9997 34.5752 12.9998C34.4825 12.9998 34.3933 12.9616 34.3281 12.8943L32.1045 10.6043C32.0359 10.5354 31.998 10.4408 32 10.3426C32.002 10.2443 32.0438 10.1506 32.1152 10.0848ZM29.1094 7.26152C32.1685 4.35693 36.9058 4.35693 39.9648 7.26152C40.0339 7.32962 40.0732 7.42331 40.0742 7.52128C40.0751 7.61915 40.0373 7.71357 39.9697 7.783L38.6846 9.1082C38.5521 9.24347 38.338 9.24678 38.2022 9.11503C37.1977 8.1866 35.8912 7.67165 34.5361 7.67168C33.1818 7.67225 31.876 8.18713 30.8721 9.11503C30.7362 9.24677 30.5221 9.24354 30.3897 9.1082L29.1045 7.783C29.0367 7.71365 28.9992 7.61921 29 7.52128C29.0009 7.42333 29.0404 7.32961 29.1094 7.26152ZM26.1074 4.44218C30.7993 -0.147426 38.2007 -0.147363 42.8926 4.44218C42.9605 4.51037 42.9994 4.60373 43 4.70097C43.0005 4.79806 42.9625 4.89184 42.8955 4.96074L41.6094 6.28593C41.4769 6.42191 41.2616 6.42362 41.127 6.28984C39.3393 4.55507 36.9666 3.5878 34.5 3.58769C32.0334 3.58781 29.6608 4.55507 27.8731 6.28984C27.7385 6.42373 27.523 6.42208 27.3906 6.28593L26.1035 4.96074C26.0366 4.89181 25.9995 4.79803 26 4.70097C26.0006 4.60373 26.0395 4.51032 26.1074 4.44218Z" fill="black"/>
<path d="M1 9.5H2C2.27614 9.5 2.5 9.72386 2.5 10V12C2.5 12.2761 2.27614 12.5 2 12.5H1C0.723858 12.5 0.5 12.2761 0.5 12V10C0.5 9.72386 0.723858 9.5 1 9.5ZM6 7H7C7.27614 7 7.5 7.22386 7.5 7.5V12C7.5 12.2761 7.27614 12.5 7 12.5H6C5.72386 12.5 5.5 12.2761 5.5 12V7.5C5.5 7.22386 5.72386 7 6 7ZM11 3.5H12C12.2761 3.5 12.5 3.72386 12.5 4V12C12.5 12.2761 12.2761 12.5 12 12.5H11C10.7239 12.5 10.5 12.2761 10.5 12V4C10.5 3.72386 10.7239 3.5 11 3.5ZM16 1.5H17C17.2761 1.5 17.5 1.72386 17.5 2V12C17.5 12.2761 17.2761 12.5 17 12.5H16C15.7239 12.5 15.5 12.2761 15.5 12V2C15.5 1.72386 15.7239 1.5 16 1.5Z" fill="black" stroke="black"/>
</svg>
