<svg width="14" height="17" viewBox="0 0 14 17" fill="none" xmlns="http://www.w3.org/2000/svg">
<path d="M1.04688 7.9541C0.748047 7.9541 0.499023 7.85449 0.299805 7.65527C0.100586 7.45605 0.000976562 7.2041 0.000976562 6.89941C0.000976562 6.60645 0.115234 6.34277 0.34375 6.1084L6.10059 0.333984C6.20605 0.228516 6.3291 0.146484 6.46973 0.0878906C6.61621 0.0292969 6.7627 0 6.90918 0C7.06152 0 7.20801 0.0292969 7.34863 0.0878906C7.49512 0.146484 7.62109 0.228516 7.72656 0.333984L13.4834 6.1084C13.7119 6.34277 13.8262 6.60645 13.8262 6.89941C13.8262 7.2041 13.7266 7.45605 13.5273 7.65527C13.3281 7.85449 13.0791 7.9541 12.7803 7.9541C12.6221 7.9541 12.4756 7.9248 12.3408 7.86621C12.2119 7.80762 12.0977 7.72852 11.998 7.62891L10.0117 5.66016L6.90039 2.12695L3.80664 5.66016L1.82031 7.62891C1.7207 7.72852 1.60645 7.80762 1.47754 7.86621C1.34863 7.9248 1.20508 7.9541 1.04688 7.9541ZM6.90918 16.7432C6.58691 16.7432 6.32324 16.6406 6.11816 16.4355C5.91895 16.2305 5.81934 15.9609 5.81934 15.627V5.20312L5.93359 2.15332C5.93359 1.85449 6.02441 1.61426 6.20605 1.43262C6.3877 1.24512 6.62207 1.15137 6.90918 1.15137C7.19629 1.15137 7.43066 1.24512 7.6123 1.43262C7.79395 1.61426 7.88477 1.85449 7.88477 2.15332L7.99902 5.20312V15.627C7.99902 15.9609 7.89648 16.2305 7.69141 16.4355C7.49219 16.6406 7.23145 16.7432 6.90918 16.7432Z" fill="white"/>
</svg>
