<svg width="22" height="22" viewBox="0 0 22 22" fill="none" xmlns="http://www.w3.org/2000/svg">
<path d="M5.8692 8.64486C6.15341 8.0733 6.85096 7.83832 7.42715 8.12025C8.00328 8.40218 8.23988 9.09415 7.95572 9.66568L10.0146 11.5933L13.2657 15.1793C13.873 14.9719 14.5349 15.2919 14.7441 15.8944C14.9533 16.4969 14.6305 17.1537 14.023 17.3613L1.65146 21.588C1.20573 21.7402 0.711327 21.6105 0.39973 21.2596C0.0881511 20.9087 0.0208353 20.4058 0.229384 19.9863L5.8692 8.64486Z" fill="#1D70B8"/>
<path d="M21.9597 10.9777C21.9597 16.9486 17.0801 21.789 11.0609 21.789C5.04166 21.789 0.162109 16.9486 0.162109 10.9777C0.162109 5.00686 5.04166 0.166504 11.0609 0.166504C17.0801 0.166504 21.9597 5.00686 21.9597 10.9777Z" fill="#1D70B8"/>
</svg>
