<svg width="22" height="19" viewBox="0 0 22 19" fill="none" xmlns="http://www.w3.org/2000/svg">
<path d="M8.19141 17.5518V12.0059C8.19141 11.8008 8.25293 11.6367 8.37598 11.5137C8.50488 11.3848 8.6748 11.3203 8.88574 11.3203H12.5947C12.8057 11.3203 12.9697 11.3848 13.0869 11.5137C13.21 11.6367 13.2715 11.8008 13.2715 12.0059V17.5518H8.19141ZM0.905273 9.71191C0.624023 9.71191 0.401367 9.62988 0.237305 9.46582C0.0791016 9.2959 0 9.09668 0 8.86816C0 8.59277 0.114258 8.36133 0.342773 8.17383L9.50098 0.483398C9.88184 0.161133 10.292 0 10.7314 0C11.1768 0 11.5869 0.161133 11.9619 0.483398L21.1201 8.17383C21.3545 8.36133 21.4717 8.59277 21.4717 8.86816C21.4717 9.09668 21.3896 9.2959 21.2256 9.46582C21.0674 9.62988 20.8477 9.71191 20.5664 9.71191C20.4316 9.71191 20.3027 9.68262 20.1797 9.62402C20.0625 9.55957 19.9512 9.4834 19.8457 9.39551L11.1094 2.06543C10.9922 1.96582 10.8662 1.91602 10.7314 1.91602C10.6025 1.91602 10.4795 1.96582 10.3623 2.06543L1.63477 9.39551C1.52344 9.4834 1.40625 9.55957 1.2832 9.62402C1.16602 9.68262 1.04004 9.71191 0.905273 9.71191ZM16.3125 4.61426V2.5752C16.3125 2.37598 16.3711 2.21777 16.4883 2.10059C16.6113 1.9834 16.7695 1.9248 16.9629 1.9248H18.1494C18.3486 1.9248 18.5068 1.9834 18.624 2.10059C18.7412 2.21777 18.7998 2.37598 18.7998 2.5752V6.70605L16.3125 4.61426ZM4.79004 18.835C4.12207 18.835 3.60059 18.6533 3.22559 18.29C2.85645 17.9326 2.67188 17.4258 2.67188 16.7695V6.9873L4.39453 5.81836V16.251C4.39453 16.5264 4.46777 16.7373 4.61426 16.8838C4.7666 17.0303 4.97754 17.1035 5.24707 17.1035H16.2246C16.5 17.1035 16.708 17.0303 16.8486 16.8838C16.9951 16.7373 17.0684 16.5264 17.0684 16.251V5.80957L18.7998 6.9873V16.7695C18.7998 17.4199 18.6123 17.9268 18.2373 18.29C17.8682 18.6533 17.3496 18.835 16.6816 18.835H4.79004Z" fill="#4D4D4D"/>
</svg>
