<svg width="20" height="20" viewBox="0 0 20 20" fill="none" xmlns="http://www.w3.org/2000/svg">
<path d="M8.65723 19.0723C8.29395 19.0723 7.97754 18.9697 7.70801 18.7646C7.43848 18.5596 7.26562 18.2812 7.18945 17.9297L6.8291 16.374L6.5918 16.2949L5.24707 17.1211C4.94238 17.3145 4.62012 17.3877 4.28027 17.3408C3.94629 17.2998 3.65039 17.1504 3.39258 16.8926L2.16211 15.6709C1.89844 15.4072 1.74609 15.1084 1.70508 14.7744C1.66406 14.4404 1.74023 14.1211 1.93359 13.8164L2.77734 12.4717L2.69824 12.252L1.14258 11.8916C0.796875 11.8096 0.518555 11.6338 0.307617 11.3643C0.102539 11.0947 0 10.7812 0 10.4238V8.69238C0 8.33496 0.102539 8.02441 0.307617 7.76074C0.512695 7.49121 0.791016 7.3125 1.14258 7.22461L2.68066 6.85547L2.76855 6.61816L1.9248 5.27344C1.7373 4.97461 1.66113 4.6582 1.69629 4.32422C1.7373 3.99023 1.88965 3.69141 2.15332 3.42773L3.38379 2.19727C3.6416 1.94531 3.9375 1.7959 4.27148 1.74902C4.60547 1.70215 4.9248 1.77246 5.22949 1.95996L6.58301 2.79492L6.8291 2.69824L7.18945 1.14258C7.26562 0.796875 7.43848 0.521484 7.70801 0.316406C7.97754 0.105469 8.29395 0 8.65723 0H10.4414C10.8047 0 11.1182 0.105469 11.3818 0.316406C11.6455 0.521484 11.8184 0.796875 11.9004 1.14258L12.2607 2.69824L12.5068 2.79492L13.8604 1.95996C14.165 1.77246 14.4844 1.70215 14.8184 1.74902C15.1523 1.7959 15.4482 1.94531 15.7061 2.19727L16.9365 3.42773C17.2002 3.69141 17.3496 3.99023 17.3848 4.32422C17.4258 4.6582 17.3525 4.97461 17.165 5.27344L16.3213 6.61816L16.418 6.85547L17.9473 7.22461C18.293 7.30664 18.5684 7.48242 18.7734 7.75195C18.9844 8.02148 19.0898 8.33496 19.0898 8.69238V10.4238C19.0898 10.7812 18.9844 11.0947 18.7734 11.3643C18.5684 11.6338 18.293 11.8096 17.9473 11.8916L16.4004 12.252L16.3125 12.4717L17.1562 13.8164C17.3438 14.1211 17.417 14.4404 17.376 14.7744C17.3408 15.1084 17.1914 15.4072 16.9277 15.6709L15.6973 16.8926C15.4395 17.1504 15.1406 17.2998 14.8008 17.3408C14.4668 17.3877 14.1475 17.3145 13.8428 17.1211L12.4893 16.2949L12.2607 16.374L11.9004 17.9297C11.8184 18.2812 11.6455 18.5596 11.3818 18.7646C11.1182 18.9697 10.8047 19.0723 10.4414 19.0723H8.65723ZM8.87695 17.4814H10.2217C10.3623 17.4814 10.4414 17.4141 10.459 17.2793L10.9863 15.1172C11.2793 15.0527 11.5518 14.9678 11.8037 14.8623C12.0557 14.751 12.29 14.6279 12.5068 14.4932L14.3965 15.6533C14.5195 15.7354 14.6279 15.7236 14.7217 15.6182L15.6533 14.6777C15.7471 14.5957 15.7559 14.4902 15.6797 14.3613L14.5195 12.4805C14.6426 12.2695 14.7568 12.0352 14.8623 11.7773C14.9736 11.5195 15.0615 11.2529 15.126 10.9775L17.2969 10.459C17.4316 10.4355 17.499 10.3535 17.499 10.2129V8.89453C17.499 8.75977 17.4316 8.67773 17.2969 8.64844L15.1348 8.12988C15.0645 7.83691 14.9707 7.55859 14.8535 7.29492C14.7422 7.03125 14.6338 6.80566 14.5283 6.61816L15.6885 4.72852C15.7705 4.60547 15.7617 4.49414 15.6621 4.39453L14.7305 3.48047C14.6309 3.38672 14.5195 3.37207 14.3965 3.43652L12.5068 4.58789C12.29 4.46484 12.0527 4.35059 11.7949 4.24512C11.543 4.13379 11.2734 4.04297 10.9863 3.97266L10.459 1.79297C10.4414 1.6582 10.3623 1.59082 10.2217 1.59082H8.87695C8.73047 1.59082 8.64551 1.6582 8.62207 1.79297L8.1123 3.95508C7.83105 4.02539 7.55273 4.11914 7.27734 4.23633C7.00781 4.34766 6.77344 4.46191 6.57422 4.5791L4.68457 3.43652C4.56738 3.37207 4.45898 3.38379 4.35938 3.47168L3.41895 4.39453C3.3252 4.49414 3.31641 4.60547 3.39258 4.72852L4.55273 6.61816C4.45312 6.80566 4.34473 7.03125 4.22754 7.29492C4.11035 7.55859 4.01953 7.83691 3.95508 8.12988L1.79297 8.64844C1.6582 8.67773 1.59082 8.75977 1.59082 8.89453V10.2129C1.59082 10.3535 1.6582 10.4355 1.79297 10.459L3.95508 10.9688C4.02539 11.25 4.11621 11.5195 4.22754 11.7773C4.33887 12.0293 4.45312 12.2637 4.57031 12.4805L3.40137 14.3701C3.33105 14.4932 3.33984 14.5986 3.42773 14.6865L4.36816 15.6182C4.46191 15.7236 4.56738 15.7383 4.68457 15.6621L6.58301 14.4932C6.7998 14.6279 7.03711 14.751 7.29492 14.8623C7.55859 14.9678 7.82812 15.0527 8.10352 15.1172L8.62207 17.2793C8.64551 17.4141 8.73047 17.4814 8.87695 17.4814ZM9.54492 12.8672C8.92969 12.8672 8.36719 12.7178 7.85742 12.4189C7.35352 12.1201 6.95215 11.7188 6.65332 11.2148C6.36035 10.7051 6.21387 10.1455 6.21387 9.53613C6.21387 8.9209 6.36035 8.36133 6.65332 7.85742C6.95215 7.35352 7.35352 6.95215 7.85742 6.65332C8.36719 6.35449 8.92969 6.20508 9.54492 6.20508C10.1602 6.20508 10.7197 6.35449 11.2236 6.65332C11.7275 6.95215 12.1289 7.35352 12.4277 7.85742C12.7266 8.36133 12.876 8.9209 12.876 9.53613C12.876 10.1455 12.7266 10.7051 12.4277 11.2148C12.1289 11.7188 11.7275 12.1201 11.2236 12.4189C10.7197 12.7178 10.1602 12.8672 9.54492 12.8672ZM9.54492 11.3555C9.87891 11.3555 10.1836 11.2734 10.459 11.1094C10.7344 10.9453 10.9541 10.7256 11.1182 10.4502C11.2822 10.1748 11.3643 9.87012 11.3643 9.53613C11.3643 9.19629 11.2822 8.8916 11.1182 8.62207C10.9541 8.34668 10.7344 8.12695 10.459 7.96289C10.1836 7.79883 9.87891 7.7168 9.54492 7.7168C9.20508 7.7168 8.89746 7.79883 8.62207 7.96289C8.35254 8.12695 8.13574 8.34668 7.97168 8.62207C7.80762 8.8916 7.72559 9.19629 7.72559 9.53613C7.72559 9.87012 7.80762 10.1748 7.97168 10.4502C8.13574 10.7256 8.35254 10.9453 8.62207 11.1094C8.89746 11.2734 9.20508 11.3555 9.54492 11.3555Z" fill="#4D4D4D"/>
</svg>
